<svg width="40" height="40" viewBox="0 0 40 40" fill="none" xmlns="http://www.w3.org/2000/svg">
<rect width="40" height="40" rx="20" fill="#4D5AE5"/>
<g clip-path="url(#clip0_1065757_3140)">
<path d="M27.9961 27.9999L28.0001 27.9992V22.1312C28.0001 19.2606 27.3821 17.0492 24.0261 17.0492C22.4127 17.0492 21.3301 17.9346 20.8881 18.7739H20.8414V17.3172H17.6594V27.9992H20.9727V22.7099C20.9727 21.3172 21.2367 19.9706 22.9614 19.9706C24.6607 19.9706 24.6861 21.5599 24.6861 22.7992V27.9999H27.9961Z" fill="#F4F4FD"/>
<path d="M12.2641 17.3178H15.5814V27.9998H12.2641V17.3178Z" fill="#F4F4FD"/>
<path d="M13.9214 11.9999C12.8607 11.9999 12.0001 12.8605 12.0001 13.9212C12.0001 14.9819 12.8607 15.8605 13.9214 15.8605C14.9821 15.8605 15.8427 14.9819 15.8427 13.9212C15.8421 12.8605 14.9814 11.9999 13.9214 11.9999Z" fill="#F4F4FD"/>
</g>
<defs>
<clipPath id="clip0_1065757_3140">
<rect width="16" height="16" fill="white" transform="translate(12 11.9999)"/>
</clipPath>
</defs>
</svg>
